# Blender v2.79 (sub 0) OBJ File: 'test_mountain.blend'
# www.blender.org
mtllib test_mountain_river.mtl
o Grid_Grid.001
v -59.983620 -0.000056 -51.356934
v -50.603958 -0.000056 -48.511650
v -41.959606 -0.000056 -43.891174
v -35.408253 -0.000056 -36.866096
v -29.190098 -0.000056 -29.289282
v -24.569592 -0.000056 -20.644941
v -26.244465 -0.000056 -6.126207
v -25.283718 -0.000056 5.798952
v -16.006332 -0.000056 18.933182
v -18.851620 -0.000056 28.312843
v -23.472103 -0.000056 36.957184
v -35.781002 -0.000056 41.187943
v -43.357830 -0.000056 47.406097
v -50.283279 -0.000056 62.269760
v -58.170502 -0.000056 71.507843
v -67.925018 -0.000056 72.468582
v -79.171974 -0.000056 65.115036
v -82.913857 -0.000056 55.553146
v -100.943909 -0.000056 57.704514
v -112.502357 -0.000056 52.885956
v -117.322205 -0.000056 41.947388
v -125.078201 -0.000056 28.363457
v -126.916000 -0.000056 18.914864
v -125.419357 -0.000056 9.556688
v -124.458618 -0.000056 -0.197824
v -123.183914 -0.000056 -19.147959
v -118.563416 -0.000056 -27.792297
v -115.888687 -0.000056 -40.148048
v -107.509521 -0.000056 -45.173798
v -92.491837 -0.000056 -44.601852
v -80.330978 -0.000056 -57.230003
v -70.752831 -0.000056 -57.861412
v -126.928192 -8.083542 30.158348
v -128.657806 -8.083542 20.709747
v -87.147995 -5.750718 70.856392
v -96.573242 -5.750718 64.684769
v -117.249054 -3.289869 -43.497486
v -109.591949 -3.289869 -48.233624
v -80.672775 -4.368039 -62.064873
v -71.197235 -4.368039 -63.558418
v -83.065315 -7.579106 -73.887039
v -73.589775 -7.579106 -75.380585
v -87.216972 -11.032887 -86.125519
v -77.741463 -11.032887 -87.619049
v -87.485481 -15.617229 -104.157181
v -78.267700 -15.617229 -101.584091
v -92.772987 -20.054991 -127.750343
v -72.130775 -20.054991 -121.853523
v -89.997673 -26.673971 -149.157852
v -61.657505 -26.673971 -140.575562
v -100.290718 -31.502520 -172.869202
v -74.595299 -31.502520 -179.499756
v -111.320244 -37.854332 -198.909210
v -86.223335 -37.854332 -223.769348
v -136.535065 -41.423668 -219.519989
v -109.206276 -41.423668 -251.477676
v -156.780243 -42.167366 -253.370850
v -127.430916 -42.167366 -279.378479
v -184.734680 -47.179207 -283.045471
v -153.983917 -47.179207 -309.751007
v -198.891602 -53.259666 -316.973969
v -162.555847 -53.259666 -338.057831
v -193.305969 -53.262035 -351.301178
v -176.383026 -53.262035 -369.271790
v -224.420685 -53.319981 -335.728302
v -218.834991 -53.319981 -370.055511
v -204.571075 -55.483353 -380.202393
v -187.648102 -55.483353 -398.173065
v -238.333893 -77.980812 -396.795654
v -225.676025 -77.980812 -418.929260
v -265.923218 -92.838440 -410.119080
v -253.265350 -92.838440 -432.252625
v -302.208679 -74.828026 -329.295074
v -298.834564 -69.651459 -367.714478
v -325.098328 -98.883400 -410.439606
v -295.964905 -98.883400 -422.404877
v -281.416077 -98.883400 -444.663605
v -310.368469 -98.883400 -448.184021
v -364.766785 -123.133865 -428.324524
v -350.036896 -123.133865 -466.068970
v -277.149780 -69.651459 -345.789246
v -537.137329 -123.133865 -484.835876
v -313.810425 -74.828026 -353.442413
v -325.602264 -83.413193 -352.243744
v -322.736694 -93.073860 -366.228577
v -362.913879 -90.580971 -349.197845
v -368.584991 -83.413193 -318.332764
v -326.609314 -82.880486 -302.531860
v -502.578125 -123.133865 -573.391846
v -411.640106 -123.133865 -532.186340
v -446.199341 -123.133865 -443.630371
v -241.543823 -55.908794 -374.609436
v -245.478119 -55.908794 -346.808441
v -260.092804 -61.242664 -355.515289
v -272.793182 -61.242664 -382.409424
v 21.664383 -0.000056 -6.126207
v 21.664383 -0.000056 5.798952
v 53.637840 38.014900 -6.126204
v 53.637840 38.014900 5.798956
v 84.584312 38.014900 -6.126204
v 84.584312 38.014900 5.798956
v -128.017502 -5.339596 -51.586300
v -113.438171 -5.339596 -60.604023
v -145.197983 -7.616017 -57.564251
v -113.333664 -7.616017 -77.273232
v -163.037506 -13.265483 -68.347984
v -138.007446 -13.265483 -93.069084
v -189.231689 -19.544020 -84.827950
v -158.996948 -19.544020 -114.689453
v -220.832092 -28.282015 -109.134354
v -193.151611 -28.282015 -136.473114
v -236.699387 -33.629704 -140.636826
v -217.526520 -33.629704 -171.710861
v -285.164978 -45.641972 -151.552017
v -259.455383 -45.641972 -193.220291
v -306.263885 -52.048515 -183.860580
v -286.566895 -52.048515 -215.784164
v -349.276764 -65.860474 -181.202911
v -347.491394 -65.860474 -220.400726
v -366.719849 -74.842133 -174.025787
v -397.636841 -74.842133 -203.949341
v -376.321075 -78.200821 -148.671967
v -413.310364 -78.200821 -158.681671
v -400.833374 -83.942619 -105.576859
v -432.006042 -83.942619 -132.748489
v -451.889801 -94.209000 -89.127113
v -458.206146 -94.209000 -123.805267
v -506.722565 -105.813431 -90.221977
v -490.698883 -105.813431 -132.303040
v -543.516724 -113.723236 -135.301636
v -513.427551 -113.723236 -148.222763
v -570.285767 -118.665657 -163.876144
v -523.851135 -118.665657 -183.816559
v -568.814819 -121.091766 -182.447083
v -543.579102 -121.091766 -193.284027
v -144.131134 -13.738498 41.129967
v -149.082062 -13.738498 14.083883
v -173.468628 -25.638062 64.880554
v -186.001190 -25.638062 -3.582657
v -213.611588 -41.063412 85.832092
v -231.746399 -41.063412 -13.235226
v -268.007416 -59.941101 40.636227
v -282.461304 -59.941101 -3.674564
v -283.441467 -65.395004 103.896698
v -297.394531 -65.395004 68.211189
v -311.291626 -72.214111 38.801861
v -307.513092 -72.214111 1.183533
v -325.873230 -80.636330 116.929398
v -339.826294 -80.636330 81.243881
v -343.406555 -88.852356 147.819931
v -368.039673 -88.852356 119.391388
v -383.222382 -101.235939 177.513794
v -397.175476 -101.235939 141.828278
v -447.590088 -121.595818 179.941360
v -446.171326 -121.595818 141.327988
v -497.653046 -137.069321 151.159241
v -482.264618 -137.069321 116.146286
v -536.752686 -147.967545 109.517654
v -507.555511 -147.967545 86.478531
v -345.601532 -85.895950 28.201633
v -349.383423 -85.895950 -9.416313
v -382.331329 -99.089142 15.192498
v -386.113251 -99.089142 -22.425446
v -420.874939 -112.933868 30.128914
v -424.656860 -112.933868 -7.489038
v -461.685791 -127.592972 14.710678
v -465.467712 -127.592972 -22.907269
v -491.394867 -141.763458 32.384716
v -514.659668 -141.763458 3.746075
v -506.812347 -147.967545 61.293900
v -530.077148 -147.967545 32.655258
v -615.340332 -177.388733 95.662918
v -589.075439 -177.388733 51.687622
v -639.772095 -190.073212 95.688339
v -635.270630 -190.073212 47.057106
v -649.422913 -196.514206 127.961716
v -661.483215 -196.514206 113.484863
v -660.088623 -200.491714 89.263931
v -672.964172 -200.491714 42.352245
v -686.273743 -209.897308 106.385834
v -699.149292 -209.897308 59.474144
v -677.721985 -205.033630 134.665527
v -680.620239 -205.033630 116.981277
v -723.112366 -220.817169 111.521698
v -735.808472 -225.377548 79.592377
v -764.023315 -235.512238 128.216263
v -776.898865 -240.137085 81.304565
v -824.417908 -258.211365 114.961227
v -830.017456 -258.211365 94.559601
v -87.498795 -7.976039 83.972145
v -106.487198 -7.976039 77.662224
v -79.592682 -8.470556 96.587967
v -109.978073 -8.470556 98.417877
v -73.083687 -9.090121 110.077271
v -99.288956 -9.090121 120.298386
v -56.845226 -9.956101 119.945404
v -73.942764 -9.956101 139.877640
v -39.965828 -11.923931 139.122726
v -69.980240 -11.923931 150.565765
v -36.323471 -12.109960 165.544647
v -64.863075 -12.109959 165.927063
v -51.494686 -13.808514 200.212799
v -77.292480 -13.808514 186.191528
v -88.609192 -15.948101 224.432495
v -102.398712 -15.948101 194.358963
v -136.006348 -24.505447 219.851410
v -123.045731 -24.505447 181.632309
v -171.933029 -32.504707 199.125122
v -159.650772 -32.504707 149.428757
v -202.365860 -42.271263 195.216919
v -202.314026 -42.271263 152.372894
v -229.717682 -54.592979 206.552917
v -259.337006 -54.592979 172.123199
v -256.143860 -63.948341 229.663940
v -286.061340 -63.948341 217.545898
v -252.301819 -66.914658 266.207336
v -292.981720 -66.914658 259.449432
v -253.185913 -69.233597 302.883728
v -291.487488 -69.233597 296.520966
v -245.473694 -72.916550 350.606476
v -304.325317 -72.916550 340.829803
v -278.537750 -94.880386 396.363220
v -317.056641 -81.100975 357.921997
v -389.025909 -107.649162 436.015839
v -356.451111 -107.649162 383.032135
v -421.567413 -107.649162 422.776367
v -399.289764 -107.649162 365.242279
v -455.126495 -126.044174 430.853302
v -467.427887 -126.979607 373.604889
v -318.482025 -79.657211 266.516266
v -306.833313 -79.657211 301.569946
v -364.158020 -91.388214 275.286652
v -345.253021 -91.388214 306.888824
v -389.532684 -98.208549 303.492126
v -359.695435 -98.208549 324.245667
v -404.949432 -104.074051 344.498230
v -370.590271 -104.074051 355.080383
v -300.945587 -111.449608 454.415192
v -373.137604 -111.449608 468.023987
v -315.832001 -117.444221 512.383972
v -383.182129 -117.444221 491.547485
v -359.851562 -123.387314 564.677124
v -410.436615 -123.387314 520.202148
v -440.994019 -141.557419 606.445679
v -451.024292 -141.557419 535.361023
v -570.014404 -172.031433 580.102600
v -489.898956 -172.031433 520.405518
v -602.073242 -172.031433 506.300751
v -572.502563 -172.031433 486.782928
v -486.849182 -149.991943 445.529205
v -527.300110 -149.991943 399.246063
v -502.566772 -159.397949 475.004913
v -561.682678 -159.397949 452.419037
v -625.243164 -189.781784 602.210876
v -635.416382 -189.781784 522.340820
v -691.517273 -204.615860 595.214661
v -683.185120 -204.615860 515.438416
v -759.058960 -222.244751 565.779907
v -753.954041 -222.244751 516.902649
v -807.738220 -234.283997 536.865540
v -804.588806 -234.283997 506.712128
vn -0.0745 0.9968 0.0291
vn -0.1315 0.9862 0.1002
vn 0.0000 1.0000 0.0000
vn -0.0160 0.9698 -0.2432
vn -0.0328 0.9626 -0.2691
vn -0.1390 0.9639 -0.2270
vn -0.1435 0.9603 -0.2393
vn -0.3901 0.9176 0.0759
vn -0.4514 0.8882 0.0850
vn -0.6762 0.7256 0.1269
vn -0.6417 0.7578 0.1175
vn -0.1740 0.9659 0.1918
vn -0.1742 0.9407 0.2909
vn -0.2169 0.9087 -0.3567
vn -0.0535 0.8913 -0.4502
vn -0.0746 0.8778 -0.4731
vn -0.2174 0.9106 -0.3515
vn -0.0404 0.9657 -0.2563
vn -0.0404 0.9657 -0.2566
vn -0.0447 0.9578 -0.2839
vn -0.0232 0.9616 -0.2732
vn 0.0442 0.9711 -0.2344
vn 0.0608 0.9744 -0.2164
vn 0.0715 0.9668 -0.2453
vn 0.0717 0.9653 -0.2510
vn 0.0373 0.9780 -0.2051
vn -0.0437 0.9861 -0.1605
vn -0.0513 0.9787 -0.1989
vn -0.0852 0.9896 -0.1156
vn -0.0901 0.9921 -0.0868
vn -0.0492 0.9977 -0.0454
vn -0.0413 0.9985 -0.0365
vn -0.0465 0.9976 -0.0517
vn -0.0959 0.9871 -0.1284
vn -0.0947 0.9895 -0.1091
vn -0.0511 0.9962 -0.0696
vn -0.0464 0.9957 -0.0799
vn -0.0121 0.9998 -0.0108
vn -0.0440 0.9990 -0.0072
vn -0.0364 0.9987 -0.0343
vn -0.2133 0.9608 -0.1772
vn -0.3977 0.8832 -0.2483
vn -0.4120 0.8802 -0.2356
vn -0.2818 0.9458 -0.1612
vn -0.2669 0.9510 -0.1557
vn -0.2185 0.9516 0.2161
vn -0.2133 0.9658 0.1473
vn -0.1906 0.9757 0.1080
vn -0.0661 0.9590 -0.2756
vn -0.1668 0.9780 -0.1251
vn -0.1584 0.9468 -0.2802
vn -0.0985 0.9933 -0.0609
vn -0.0548 0.9972 -0.0507
vn -0.2204 0.9716 -0.0860
vn -0.2247 0.9705 -0.0877
vn -0.3191 0.9107 -0.2621
vn -0.0915 0.9890 -0.1159
vn -0.3468 0.9354 0.0682
vn -0.1421 0.9897 0.0155
vn -0.4221 0.9066 0.0000
vn 0.0685 0.9716 -0.2263
vn -0.0501 0.9971 -0.0566
vn -0.0670 0.9977 -0.0101
vn -0.2181 0.9541 -0.2053
vn -0.2017 0.9763 -0.0787
vn -0.2621 0.9607 0.0917
vn -0.1922 0.9809 -0.0281
vn -0.1792 0.9837 0.0121
vn -0.2245 0.9687 0.1060
vn -0.0841 0.9871 -0.1360
vn -0.0976 0.9826 -0.1578
vn -0.1346 0.9760 -0.1707
vn -0.1400 0.9763 -0.1651
vn -0.1629 0.9727 -0.1650
vn -0.1473 0.9778 -0.1491
vn -0.1480 0.9775 -0.1499
vn -0.1326 0.9835 -0.1231
vn -0.1326 0.9820 -0.1342
vn -0.1593 0.9811 -0.1092
vn -0.1818 0.9769 -0.1121
vn -0.1836 0.9764 -0.1133
vn -0.2008 0.9753 -0.0920
vn -0.2562 0.9666 0.0044
vn -0.3983 0.9171 -0.0181
vn -0.1567 0.9844 0.0800
vn -0.0585 0.9928 0.1044
vn -0.0317 0.9926 0.1172
vn -0.1019 0.9847 0.1413
vn -0.1751 0.9759 0.1299
vn -0.2212 0.9719 0.0803
vn -0.2951 0.9554 0.0144
vn -0.2109 0.9746 -0.0755
vn -0.1002 0.9877 -0.1201
vn -0.0536 0.9907 -0.1248
vn -0.0543 0.9904 -0.1265
vn -0.0548 0.9903 -0.1277
vn -0.0574 0.9893 -0.1338
vn -0.3139 0.9477 0.0574
vn -0.3157 0.9471 0.0578
vn -0.3311 0.9416 0.0606
vn -0.3420 0.9386 0.0444
vn -0.3441 0.9359 0.0758
vn -0.3117 0.9480 0.0644
vn -0.2804 0.9576 0.0665
vn -0.3430 0.9370 0.0654
vn -0.3492 0.9370 0.0047
vn -0.2125 0.9736 0.0831
vn -0.2349 0.9654 0.1134
vn -0.2114 0.9640 0.1608
vn -0.2118 0.9651 0.1540
vn -0.2823 0.9534 0.1060
vn -0.2638 0.9590 0.1031
vn -0.3251 0.9455 0.0162
vn -0.3348 0.9415 -0.0378
vn -0.2544 0.9634 -0.0838
vn -0.2328 0.9635 -0.1320
vn -0.2294 0.9680 -0.1010
vn -0.3959 0.9179 -0.0249
vn -0.3415 0.9398 0.0140
vn -0.3369 0.9409 0.0338
vn -0.3382 0.9405 0.0340
vn -0.3386 0.9403 0.0340
vn -0.3372 0.9408 0.0339
vn -0.3140 0.9469 0.0694
vn -0.2251 0.9651 0.1333
vn -0.2227 0.9579 0.1809
vn -0.2221 0.9736 0.0519
vn -0.0513 0.9978 0.0417
vn -0.3373 0.9322 -0.1311
vn -0.3681 0.9245 -0.0992
vn -0.3257 0.9448 -0.0356
vn -0.4279 0.9038 0.0072
vn -0.2605 0.9542 0.1471
vn -0.3387 0.9400 0.0400
vn -0.3046 0.9501 0.0668
vn -0.2966 0.9528 -0.0649
vn -0.2412 0.9588 0.1498
vn -0.3396 0.9354 0.0979
vn -0.3320 0.9432 0.0105
vn -0.3631 0.9317 -0.0040
vn -0.3574 0.9339 0.0087
vn -0.3442 0.9389 0.0019
vn -0.3402 0.9402 0.0119
vn -0.3223 0.9452 0.0526
vn -0.0339 0.9963 0.0782
vn -0.0198 0.9967 0.0782
vn -0.0012 0.9996 0.0279
vn 0.0069 0.9993 0.0353
vn 0.0079 0.9995 0.0303
vn 0.0196 0.9992 0.0333
vn 0.0431 0.9960 0.0777
vn 0.0470 0.9981 0.0403
vn 0.0290 0.9986 0.0431
vn -0.0065 0.9994 0.0335
vn 0.0003 0.9997 0.0257
vn -0.0201 0.9984 0.0525
vn -0.0413 0.9979 0.0503
vn -0.1079 0.9923 0.0598
vn -0.1859 0.9825 0.0096
vn -0.2162 0.9758 -0.0336
vn -0.2386 0.9681 -0.0757
vn -0.2212 0.9744 -0.0406
vn -0.2366 0.9714 -0.0204
vn -0.2763 0.9595 0.0550
vn -0.1937 0.9711 0.1395
vn -0.2549 0.9417 0.2193
vn -0.0716 0.9902 0.1198
vn -0.1477 0.9864 0.0720
vn -0.0118 0.9974 0.0713
vn -0.1794 0.9792 0.0944
vn -0.0120 0.9973 0.0721
vn -0.0434 0.9633 0.2646
vn -0.0386 0.9718 0.2324
vn -0.1007 0.9404 0.3248
vn -0.1072 0.9916 0.0726
vn -0.0232 0.9985 0.0491
vn -0.0927 0.9941 0.0563
vn -0.2153 0.9765 -0.0112
vn -0.3753 0.9240 0.0727
vn -0.5187 0.8493 0.0976
vn -0.3519 0.9297 0.1086
vn -0.4076 0.9030 0.1354
vn -0.2053 0.9685 0.1409
vn -0.1219 0.9837 0.1319
vn -0.1139 0.9760 0.1855
vn -0.0621 0.9855 0.1577
vn -0.0589 0.9841 0.1674
vn 0.0018 0.9810 0.1939
vn -0.0084 0.9894 0.1445
vn -0.0126 0.9932 0.1154
vn -0.0661 0.9863 0.1511
vn -0.0901 0.9882 0.1237
vn -0.1827 0.9765 0.1143
vn -0.3049 0.9523 -0.0034
vn -0.2068 0.9784 -0.0011
vn -0.1782 0.9837 -0.0226
vn -0.0522 0.9897 0.1335
vn -0.1906 0.9781 0.0828
vn -0.2549 0.9499 0.1806
vn -0.1144 0.9648 0.2367
vn -0.1104 0.9534 0.2807
vn -0.3106 0.9487 0.0578
vn -0.2566 0.9659 0.0327
vn -0.2450 0.9695 -0.0075
vn -0.2680 0.9630 -0.0280
vn -0.2363 0.9713 -0.0247
vn -0.2345 0.9718 -0.0245
vn -0.2267 0.9737 -0.0237
vn -0.1691 0.9800 -0.1043
vn -0.1782 0.9778 -0.1100
vn -0.0919 0.9912 0.0949
vn -0.2844 0.9525 -0.1083
vn -0.2566 0.9613 0.1003
vn -0.0698 0.9936 -0.0885
vn -0.3370 0.9409 0.0339
vn -0.3058 0.9516 0.0307
vn -0.2826 0.9561 0.0776
vn -0.3024 0.9496 0.0830
vn 0.0320 0.9959 0.0839
vn -0.2033 0.9778 -0.0502
vn -0.0472 0.9921 0.1164
vn -0.1408 0.8787 0.4561
vn -0.1901 0.9751 0.1137
vn -0.5253 0.8476 0.0741
vn -0.1890 0.9680 0.1651
usemtl Material.002
s 1
f 18//1 17//2 13//3
f 1//3 32//4 31//5
f 30//3 29//6 27//3
f 1//3 31//5 30//3
f 3//3 2//3 4//3
f 5//3 4//3 7//3
f 7//3 6//3 5//3
f 10//3 9//3 8//3
f 8//3 7//3 25//3
f 4//3 2//3 1//3
f 29//6 28//7 27//3
f 4//3 1//3 7//3
f 11//3 10//3 12//3
f 7//3 1//3 30//3
f 30//3 27//3 25//3
f 27//3 26//3 25//3
f 10//3 8//3 12//3
f 12//3 8//3 13//3
f 30//3 25//3 7//3
f 24//3 23//8 22//9
f 21//3 20//3 18//1
f 24//3 22//9 21//3
f 8//3 25//3 13//3
f 15//3 14//3 16//3
f 13//3 25//3 24//3
f 24//3 21//3 18//1
f 20//3 19//3 18//1
f 14//3 13//3 17//2
f 17//2 16//3 14//3
f 24//3 18//1 13//3
f 22//9 34//10 33//11
f 17//2 36//12 35//13
f 29//6 37//14 28//7
f 31//5 40//15 39//16
f 22//9 23//8 34//10
f 17//2 18//1 36//12
f 29//6 38//17 37//14
f 31//5 32//4 40//15
f 39//16 42//18 41//19
f 41//19 44//20 43//21
f 43//21 46//22 45//23
f 45//23 48//24 47//25
f 48//24 49//26 47//25
f 49//26 52//27 51//28
f 52//27 53//29 51//28
f 54//30 55//31 53//29
f 56//32 57//33 55//31
f 57//33 60//34 59//35
f 60//34 61//36 59//35
f 62//37 63//38 61//36
f 63//38 65//39 61//36
f 64//40 67//41 63//38
f 67//41 70//42 69//43
f 69//43 72//44 71//45
f 81//46 74//47 73//48
f 85//49 75//50 86//51
f 71//45 77//52 76//53
f 78//54 79//55 75//50
f 84//56 86//51 87//57
f 76//53 78//54 75//50
f 73//48 83//58 88//59
f 88//59 84//56 87//57
f 39//16 40//15 42//18
f 8//3 96//60 7//3
f 97//60 98//60 96//60
f 99//60 100//3 98//60
f 41//19 42//18 44//20
f 43//21 44//20 46//22
f 45//23 46//22 48//24
f 48//24 50//61 49//26
f 49//26 50//61 52//27
f 52//27 54//30 53//29
f 54//30 56//32 55//31
f 56//32 58//62 57//33
f 57//33 58//62 60//34
f 60//34 62//37 61//36
f 62//37 64//40 63//38
f 63//38 66//63 65//39
f 64//40 68//64 67//41
f 67//41 68//64 70//42
f 69//43 70//42 72//44
f 85//49 76//53 75//50
f 71//45 72//44 77//52
f 90//3 82//3 91//3
f 78//54 80//65 79//55
f 80//65 91//3 79//55
f 84//56 85//49 86//51
f 74//47 81//46 94//66
f 76//53 77//52 78//54
f 94//66 93//67 92//68
f 66//63 92//68 93//67
f 66//63 93//67 65//39
f 73//48 74//47 83//58
f 88//59 83//58 84//56
f 94//66 92//68 95//69
f 74//47 94//66 95//69
f 8//3 97//60 96//60
f 97//60 99//60 98//60
f 99//60 101//3 100//3
f 37//14 103//70 102//70
f 102//70 105//71 104//72
f 104//72 107//73 106//74
f 106//74 109//75 108//76
f 108//76 111//77 110//78
f 111//77 112//79 110//78
f 112//79 115//80 114//81
f 115//80 116//82 114//81
f 116//82 119//83 118//84
f 119//83 120//85 118//84
f 120//85 123//86 122//87
f 123//86 124//88 122//87
f 125//89 126//90 124//88
f 127//91 128//92 126//90
f 128//92 131//93 130//94
f 130//94 133//95 132//96
f 132//96 135//97 134//97
f 34//10 136//98 33//11
f 137//99 138//100 136//98
f 139//100 140//101 138//100
f 141//102 142//103 140//101
f 142//103 144//104 140//101
f 143//105 146//106 142//103
f 145//107 148//108 144//104
f 148//108 151//109 150//110
f 150//110 153//111 152//112
f 153//111 154//113 152//112
f 155//114 156//115 154//113
f 157//116 158//117 156//115
f 147//118 160//119 146//106
f 161//120 162//121 160//119
f 162//121 165//122 164//123
f 165//122 166//124 164//123
f 166//124 169//125 168//126
f 168//126 171//127 170//128
f 158//117 170//128 171//127
f 158//117 173//129 172//130
f 172//130 175//131 174//132
f 174//132 176//133 172//130
f 175//131 178//134 174//132
f 178//134 181//135 180//136
f 177//137 182//138 176//133
f 181//135 184//139 180//136
f 183//140 184//139 182//138
f 185//141 186//142 184//139
f 187//143 188//144 186//142
f 35//13 191//145 190//146
f 190//146 193//147 192//148
f 192//148 195//149 194//150
f 194//150 197//151 196//152
f 197//151 198//153 196//152
f 198//153 201//154 200//155
f 201//154 202//156 200//155
f 203//157 204//158 202//156
f 205//159 206//160 204//158
f 207//161 208//162 206//160
f 208//162 211//163 210//164
f 210//164 213//165 212//166
f 213//165 214//167 212//166
f 214//167 217//168 216//169
f 216//169 219//170 218//171
f 218//171 221//172 220//173
f 221//172 222//174 220//173
f 222//174 225//175 224//176
f 224//176 227//177 226//178
f 226//178 229//179 228//180
f 219//170 230//181 231//182
f 230//181 233//183 231//182
f 233//183 234//184 235//185
f 235//185 236//186 237//187
f 237//187 227//177 225//175
f 224//176 238//188 222//174
f 239//189 240//190 238//188
f 241//191 242//192 240//190
f 243//193 244//194 242//192
f 244//194 247//195 246//196
f 246//196 249//197 248//198
f 229//179 250//199 228//180
f 250//199 253//200 252//201
f 249//197 252//201 253//200
f 246//196 255//202 254//203
f 255//202 256//204 254//203
f 257//205 258//206 256//204
f 259//207 260//208 258//206
f 90//3 89//3 82//3
f 80//65 90//3 91//3
f 37//14 38//17 103//70
f 102//70 103//70 105//71
f 104//72 105//71 107//73
f 106//74 107//73 109//75
f 108//76 109//75 111//77
f 111//77 113//209 112//79
f 112//79 113//209 115//80
f 115//80 117//210 116//82
f 116//82 117//210 119//83
f 119//83 121//211 120//85
f 120//85 121//211 123//86
f 123//86 125//89 124//88
f 125//89 127//91 126//90
f 127//91 129//212 128//92
f 128//92 129//212 131//93
f 130//94 131//93 133//95
f 132//96 133//95 135//97
f 34//10 137//99 136//98
f 137//99 139//100 138//100
f 139//100 141//102 140//101
f 141//102 143//105 142//103
f 142//103 145//107 144//104
f 143//105 147//118 146//106
f 145//107 149//213 148//108
f 148//108 149//213 151//109
f 150//110 151//109 153//111
f 153//111 155//114 154//113
f 155//114 157//116 156//115
f 157//116 159//214 158//117
f 147//118 161//120 160//119
f 161//120 163//215 162//121
f 162//121 163//215 165//122
f 165//122 167//216 166//124
f 166//124 167//216 169//125
f 168//126 169//125 171//127
f 158//117 159//214 170//128
f 158//117 171//127 173//129
f 172//130 173//129 175//131
f 174//132 177//137 176//133
f 175//131 179//217 178//134
f 178//134 179//217 181//135
f 177//137 183//140 182//138
f 181//135 185//141 184//139
f 183//140 180//136 184//139
f 185//141 187//143 186//142
f 187//143 189//218 188//144
f 35//13 36//12 191//145
f 190//146 191//145 193//147
f 192//148 193//147 195//149
f 194//150 195//149 197//151
f 197//151 199//219 198//153
f 198//153 199//219 201//154
f 201//154 203//157 202//156
f 203//157 205//159 204//158
f 205//159 207//161 206//160
f 207//161 209//220 208//162
f 208//162 209//220 211//163
f 210//164 211//163 213//165
f 213//165 215//221 214//167
f 214//167 215//221 217//168
f 216//169 217//168 219//170
f 218//171 219//170 221//172
f 221//172 223//222 222//174
f 222//174 223//222 225//175
f 224//176 225//175 227//177
f 226//178 227//177 229//179
f 219//170 217//168 230//181
f 230//181 232//223 233//183
f 233//183 232//223 234//184
f 235//185 234//184 236//186
f 237//187 236//186 227//177
f 224//176 239//189 238//188
f 239//189 241//191 240//190
f 241//191 243//193 242//192
f 243//193 245//224 244//194
f 244//194 245//224 247//195
f 246//196 247//195 249//197
f 229//179 251//225 250//199
f 250//199 251//225 253//200
f 249//197 247//195 252//201
f 246//196 248//198 255//202
f 255//202 257//205 256//204
f 257//205 259//207 258//206
f 259//207 261//208 260//208
