# Blender v2.79 (sub 0) OBJ File: 'test_river.blend'
# www.blender.org
mtllib test_river.mtl
o Plane
v 0.000000 0.000000 -10.000000
v -1.950903 0.000000 -9.807853
v -3.826835 0.000000 -9.238795
v -5.555702 0.000000 -8.314696
v -7.071068 0.000000 -7.071068
v -8.314696 0.000000 -5.555702
v -9.238795 0.000000 -3.826834
v -9.807853 0.000000 -1.950904
v -10.000000 0.000000 -0.000001
v -9.807853 0.000000 1.950902
v -9.238795 0.000000 3.826833
v -8.314696 0.000000 5.555702
v -7.071068 0.000000 7.071068
v -5.555702 0.000000 8.314696
v -3.826833 0.000000 9.238796
v -1.950901 0.000000 9.807853
v -1.950904 -2.000000 14.000001
v 1.950907 0.000000 9.807852
v 3.826839 0.000000 9.238793
v 5.555707 0.000000 8.314693
v 7.071073 0.000000 7.071064
v 8.314700 0.000000 5.555696
v 9.238798 0.000000 3.826827
v 9.807855 0.000000 1.950895
v 10.000000 0.000000 -0.000010
v 9.807851 0.000000 -1.950914
v 9.238791 0.000000 -3.826845
v 8.314690 0.000000 -5.555713
v 7.071059 0.000000 -7.071076
v 5.555691 0.000000 -8.314704
v 3.826821 0.000000 -9.238801
v 1.950888 0.000000 -9.807856
v 1.950904 -2.000000 14.000000
v -1.950904 -6.000000 18.000000
v 1.950904 -6.000000 18.000000
v -1.950904 -8.000000 22.000000
v 1.950904 -8.000000 22.000000
v -2.000000 -8.000000 32.000000
v 2.000000 -8.000000 32.000000
v 6.000000 -8.000000 24.000000
v 6.000000 -8.000000 30.000000
v -6.000000 -8.000000 24.000000
v -6.000000 -8.000000 30.000000
vn 0.0000 0.9025 0.4306
vn 0.0000 1.0000 0.0000
vn 0.0000 0.7071 0.7071
vn 0.0000 0.8944 0.4472
usemtl None
s off
f 16//1 33//1 18//1
f 15//2 24//2 32//2
f 17//3 35//3 33//3
f 34//4 37//4 35//4
f 38//2 39//2 36//2
f 16//1 17//1 33//1
f 1//2 2//2 3//2
f 3//2 4//2 5//2
f 5//2 6//2 3//2
f 7//2 8//2 9//2
f 9//2 10//2 11//2
f 11//2 12//2 13//2
f 13//2 14//2 15//2
f 15//2 16//2 18//2
f 18//2 19//2 15//2
f 20//2 21//2 22//2
f 22//2 23//2 24//2
f 24//2 25//2 26//2
f 26//2 27//2 24//2
f 28//2 29//2 32//2
f 30//2 31//2 32//2
f 32//2 1//2 7//2
f 3//2 6//2 7//2
f 7//2 9//2 11//2
f 11//2 13//2 15//2
f 15//2 19//2 20//2
f 20//2 22//2 15//2
f 24//2 27//2 28//2
f 29//2 30//2 32//2
f 1//2 3//2 7//2
f 7//2 11//2 32//2
f 15//2 22//2 24//2
f 24//2 28//2 32//2
f 32//2 11//2 15//2
f 17//3 34//3 35//3
f 34//4 36//4 37//4
f 40//2 37//2 39//2
f 36//2 42//2 38//2
f 43//2 38//2 42//2
f 39//2 41//2 40//2
f 37//2 36//2 39//2
