# Blender v2.79 (sub 0) OBJ File: 'test_mountain.blend'
# www.blender.org
mtllib test_mountain_river.mtl
o Grid_Grid.001
v -59.983620 -0.000056 -51.356934
v -50.603958 -0.000056 -48.511650
v -41.959606 -0.000056 -43.891174
v -35.408253 -0.000056 -36.866096
v -29.190098 -0.000056 -29.289282
v -24.569592 -0.000056 -20.644941
v -26.244465 -0.000056 -6.126207
v -25.283718 -0.000056 5.798952
v -16.006332 -0.000056 18.933182
v -18.851620 -0.000056 28.312843
v -23.472103 -0.000056 36.957184
v -35.781002 -0.000056 41.187943
v -43.357830 -0.000056 47.406097
v -50.283279 -0.000056 62.269760
v -58.170502 -0.000056 71.507843
v -67.925018 -0.000056 72.468582
v -79.171974 -0.000056 65.115036
v -82.913857 -0.000056 55.553146
v -100.943909 -0.000056 57.704514
v -112.502357 -0.000056 52.885956
v -117.322205 -0.000056 41.947388
v -125.078201 -0.000056 28.363457
v -126.916000 -0.000056 18.914864
v -125.419357 -0.000056 9.556688
v -124.458618 -0.000056 -0.197824
v -123.183914 -0.000056 -19.147959
v -118.563416 -0.000056 -27.792297
v -115.888687 -0.000056 -40.148048
v -107.509521 -0.000056 -45.173798
v -92.491837 -0.000056 -44.601852
v -80.330978 -0.000056 -57.230003
v -70.752831 -0.000056 -57.861412
v -132.562561 -6.170060 30.158348
v -134.400375 -6.170060 20.709747
v -87.355827 -4.409932 73.409836
v -95.683167 -5.631757 65.188202
v -117.396042 -3.290000 -43.497486
v -109.473114 -3.290000 -48.233624
v -80.672775 -4.368039 -62.064873
v -71.197235 -4.368039 -63.558418
v -83.065315 -7.579106 -73.887039
v -73.589775 -7.579106 -75.380585
v -87.216972 -11.032887 -86.125519
v -77.741463 -11.032887 -87.619049
v -98.782310 -15.617229 -98.402664
v -90.819618 -15.617229 -103.711502
v -120.114838 -20.054991 -109.783279
v -112.152168 -20.054991 -115.092133
v -134.531677 -25.934603 -125.849976
v -123.634552 -25.934603 -136.149551
v -159.218628 -31.502520 -133.513443
v -147.484863 -31.502520 -157.315491
v -186.151093 -37.854332 -142.137512
v -188.625854 -37.854332 -177.376099
v -218.220520 -41.423668 -136.467850
v -224.619507 -41.423668 -178.027557
v -257.084534 -42.167370 -143.201004
v -257.655457 -42.167370 -182.411407
v -297.811279 -47.179207 -141.366562
v -297.997162 -47.179207 -182.094452
v -332.763123 -53.259670 -152.765289
v -325.044922 -53.259670 -194.059937
v -355.140137 -53.399197 -179.389099
v -357.724030 -53.399197 -203.938049
v -363.630280 -53.538715 -145.646576
v -386.007294 -53.538715 -172.270386
v -384.395081 -58.747639 -189.700806
v -386.979004 -58.747639 -214.249847
v -418.994568 -112.916580 -174.931274
v -427.515930 -112.916580 -198.962616
v -447.088867 -148.690491 -162.708557
v -455.610199 -148.690491 -186.739868
v -409.490875 -105.325363 -82.486717
v -436.412231 -92.861328 -110.103256
v -485.928680 -163.245438 -118.062531
v -475.996216 -163.245438 -147.950165
v -483.379028 -163.245438 -173.496460
v -504.931671 -163.245438 -153.846558
v -525.359192 -221.635254 -99.658997
v -544.362183 -221.635254 -135.443039
v -405.648956 -92.861328 -112.239807
v -680.623352 -221.635254 -5.860445
v -435.361938 -105.325363 -89.442566
v -442.144531 -125.996567 -79.722481
v -450.876068 -149.257339 -91.016144
v -464.172089 -143.255005 -49.453346
v -444.475159 -125.996567 -25.022955
v -405.119446 -124.713928 -46.534634
v -725.208191 -221.635254 -89.816940
v -634.660095 -221.635254 -131.872314
v -590.075256 -221.635254 -47.915825
v -404.270966 -59.772015 -158.027222
v -385.763763 -59.772015 -136.911896
v -401.895996 -72.614799 -131.512878
v -430.565704 -72.614799 -139.427551
v 21.664383 -0.000056 -6.126207
v 21.664383 -0.000056 5.798952
v 53.637840 38.014900 -6.126204
v 53.637840 38.014900 5.798956
v 84.584312 38.014900 -6.126204
v 84.584312 38.014900 5.798956
vn -0.0735 0.9969 0.0288
vn -0.1416 0.9878 0.0652
vn 0.0000 1.0000 0.0000
vn -0.0160 0.9698 -0.2432
vn -0.0328 0.9626 -0.2691
vn -0.1383 0.9630 -0.2312
vn -0.1433 0.9604 -0.2388
vn -0.2300 0.9721 0.0447
vn -0.2353 0.9708 0.0457
vn -0.6143 0.7799 0.1195
vn -0.3182 0.9348 0.1577
vn -0.3167 0.9308 0.1824
vn -0.3444 0.7422 -0.5748
vn -0.0535 0.8913 -0.4502
vn -0.0746 0.8778 -0.4731
vn -0.3443 0.7413 -0.5761
vn -0.0404 0.9657 -0.2563
vn -0.0404 0.9657 -0.2566
vn -0.0399 0.9666 -0.2533
vn -0.0558 0.9674 -0.2468
vn -0.1155 0.9719 -0.2050
vn -0.1271 0.9734 -0.1907
vn -0.1319 0.9737 -0.1857
vn -0.1340 0.9704 -0.2010
vn -0.1555 0.9770 -0.1458
vn -0.1726 0.9825 -0.0702
vn -0.1952 0.9760 -0.0962
vn -0.1432 0.9896 -0.0108
vn -0.1245 0.9921 0.0117
vn -0.0665 0.9977 0.0077
vn -0.0546 0.9985 0.0075
vn -0.0695 0.9976 0.0015
vn -0.1599 0.9871 -0.0110
vn -0.1445 0.9895 0.0006
vn -0.0894 0.9960 -0.0066
vn -0.0934 0.9955 -0.0171
vn -0.0413 0.9991 0.0047
vn -0.0823 0.9943 0.0674
vn -0.1198 0.9927 0.0126
vn -0.4980 0.8640 0.0730
vn -0.7497 0.6154 0.2433
vn -0.7458 0.6114 0.2644
vn -0.5805 0.7878 0.2058
vn -0.5642 0.8024 0.1942
vn 0.0410 0.8057 0.5909
vn -0.0495 0.8410 0.5387
vn -0.0924 0.8793 0.4672
vn -0.4545 0.8551 -0.2494
vn -0.4011 0.9140 0.0603
vn -0.6167 0.7743 -0.1418
vn -0.2492 0.9652 0.0785
vn -0.1711 0.9851 0.0184
vn -0.3707 0.9076 0.1968
vn -0.3780 0.9038 0.2007
vn -0.6572 0.7394 0.1460
vn -0.3255 0.9454 -0.0139
vn -0.2809 0.7743 0.5670
vn -0.1848 0.9481 0.2586
vn -0.4221 0.9066 0.0000
vn -0.1423 0.9783 -0.1506
vn -0.0756 0.9971 0.0011
vn -0.1209 0.9872 0.1039
vn -0.5548 0.8300 0.0584
vn -0.3422 0.9218 0.1817
vn -0.2015 0.8277 0.5238
vn -0.3170 0.9077 0.2751
vn -0.2448 0.9168 0.3154
vn -0.1391 0.8524 0.5039
usemtl Material.002
s 1
f 18//1 17//2 13//3
f 1//3 32//4 31//5
f 30//3 29//6 27//3
f 1//3 31//5 30//3
f 3//3 2//3 4//3
f 5//3 4//3 7//3
f 7//3 6//3 5//3
f 10//3 9//3 8//3
f 8//3 7//3 25//3
f 4//3 2//3 1//3
f 29//6 28//7 27//3
f 4//3 1//3 7//3
f 11//3 10//3 12//3
f 7//3 1//3 30//3
f 30//3 27//3 25//3
f 27//3 26//3 25//3
f 10//3 8//3 12//3
f 12//3 8//3 13//3
f 30//3 25//3 7//3
f 24//3 23//8 22//9
f 21//3 20//3 18//1
f 24//3 22//9 21//3
f 8//3 25//3 13//3
f 15//3 14//3 16//3
f 13//3 25//3 24//3
f 24//3 21//3 18//1
f 20//3 19//3 18//1
f 14//3 13//3 17//2
f 17//2 16//3 14//3
f 24//3 18//1 13//3
f 22//9 34//10 33//10
f 17//2 36//11 35//12
f 29//6 37//13 28//7
f 31//5 40//14 39//15
f 22//9 23//8 34//10
f 17//2 18//1 36//11
f 29//6 38//16 37//13
f 31//5 32//4 40//14
f 39//15 42//17 41//18
f 41//18 44//19 43//20
f 43//20 46//21 45//22
f 45//22 48//23 47//24
f 48//23 49//25 47//24
f 49//25 52//26 51//27
f 52//26 53//28 51//27
f 54//29 55//30 53//28
f 56//31 57//32 55//30
f 57//32 60//33 59//34
f 60//33 61//35 59//34
f 62//36 63//37 61//35
f 63//37 65//38 61//35
f 64//39 67//40 63//37
f 67//40 70//41 69//42
f 69//42 72//43 71//44
f 81//45 74//46 73//47
f 85//48 75//49 86//50
f 71//44 77//51 76//52
f 78//53 79//54 75//49
f 84//55 86//50 87//56
f 76//52 78//53 75//49
f 73//47 83//57 88//58
f 88//58 84//55 87//56
f 39//15 40//14 42//17
f 8//3 96//59 7//3
f 97//59 98//59 96//59
f 99//59 100//3 98//59
f 41//18 42//17 44//19
f 43//20 44//19 46//21
f 45//22 46//21 48//23
f 48//23 50//60 49//25
f 49//25 50//60 52//26
f 52//26 54//29 53//28
f 54//29 56//31 55//30
f 56//31 58//61 57//32
f 57//32 58//61 60//33
f 60//33 62//36 61//35
f 62//36 64//39 63//37
f 63//37 66//62 65//38
f 64//39 68//63 67//40
f 67//40 68//63 70//41
f 69//42 70//41 72//43
f 85//48 76//52 75//49
f 71//44 72//43 77//51
f 90//3 82//3 91//3
f 78//53 80//64 79//54
f 80//64 91//3 79//54
f 84//55 85//48 86//50
f 74//46 81//45 94//65
f 76//52 77//51 78//53
f 94//65 93//66 92//67
f 66//62 92//67 93//66
f 66//62 93//66 65//38
f 73//47 74//46 83//57
f 88//58 83//57 84//55
f 94//65 92//67 95//68
f 74//46 94//65 95//68
f 8//3 97//59 96//59
f 97//59 99//59 98//59
f 99//59 101//3 100//3
f 90//3 89//3 82//3
f 80//64 90//3 91//3
